<svg width="45" height="50" fill="none" xmlns="http://www.w3.org/2000/svg"><path d="M6 0l7.3076 6.91796h20.3848V26.2158L41 33.1338V0H6z" fill="#AFB1B8"/><path d="M0 6.62646V38.8137h34V26.0195L13.5231 6.63443 0 6.62646zM27.5231 34.1055H5.38008V12.4579H6.9453v20.1818h20.5778v1.4658zM9.79099 44.7837l.81791-1.6846h.6835l-1.1914 2.2461v1.3086h-.62007v-1.3086l-1.19385-2.2461h.68603l.81788 1.6846zm3.51071 1.0425h-1.3769l-.2881.8276h-.6421l1.3428-3.5547h.5542l1.3452 3.5547h-.6445l-.2906-.8276zm-1.2036-.4981h1.0303l-.5151-1.4746-.5152 1.4746zm3.6377.3662c0-.1644.0448-.3149.1343-.4516.0895-.1384.2661-.3019.5298-.4907-.1384-.1742-.2352-.3223-.2906-.4444-.0537-.1221-.0805-.2401-.0805-.354 0-.2783.0846-.498.2539-.6592.1693-.1627.3971-.2441.6836-.2441.2588 0 .4704.0765.6347.2295.1661.1514.2491.3393.2491.564 0 .1481-.0375.2848-.1123.4101-.0749.1237-.1978.2474-.3687.3711l-.2417.1758.686.8105c.0993-.1953.149-.4126.149-.6518h.5151c0 .4378-.1025.7967-.3076 1.0766l.5225.6177h-.6885l-.2002-.2368c-.2539.1904-.5567.2856-.9082.2856-.3516 0-.6332-.0927-.8447-.2783-.21-.1872-.315-.4305-.315-.73zm1.1768.5347c.2002 0 .3873-.0667.5615-.2002l-.7764-.9155-.0757.0537c-.1953.1481-.2929.3174-.2929.5078 0 .1644.0529.2979.1587.4004.1058.1025.2474.1538.4248.1538zm-.3272-2.29c0 .1367.0838.3084.2515.5151l.271-.1855.0757-.0611c.1009-.0895.1513-.2042.1513-.3442 0-.0928-.035-.1717-.105-.2368-.0699-.0668-.1586-.1001-.2661-.1001-.1155 0-.2075.039-.2758.1172-.0684.0781-.1026.1765-.1026.2954zm6.4575 1.5576c-.0358.3792-.1757.6754-.4199.8887-.2441.2115-.5688.3173-.9741.3173-.2832 0-.533-.0667-.7495-.2002-.2149-.135-.3809-.3263-.4981-.5737-.1172-.2474-.1782-.5347-.1831-.8618v-.332c0-.3353.0594-.6307.1783-.8863.1188-.2555.2889-.4524.5102-.5908.223-.1383.4802-.2075.7715-.2075.3922 0 .708.1066.9473.3198.2392.2132.3784.5143.4174.9033h-.6152c-.0293-.2555-.1042-.4394-.2246-.5517-.1188-.114-.2938-.1709-.5249-.1709-.2686 0-.4753.0985-.6201.2954-.1433.1953-.2165.4826-.2198.8618v.3149c0 .3842.0684.6771.2051.879.1384.2018.3402.3027.6055.3027.2425 0 .4248-.0545.5469-.1636.122-.109.1994-.2905.2319-.5444h.6152zm3.3912-.5274c0 .3483-.0603.6543-.1807.918-.1205.2621-.293.4639-.5176.6055-.223.1399-.4801.2099-.7715.2099-.2881 0-.5452-.07-.7715-.2099-.2246-.1416-.3987-.3426-.5224-.6031-.1221-.2604-.1839-.5607-.1856-.9008v-.2002c0-.3467.0611-.6527.1831-.918.1237-.2653.2971-.4679.5201-.6079.2246-.1416.4817-.2124.7714-.2124.2898 0 .5461.07.7691.21.2246.1383.3979.3385.52.6005.1221.2605.1839.564.1856.9107v.1977zm-.6177-.1855c0-.3939-.0749-.6958-.2246-.9058-.1481-.2099-.3589-.3149-.6324-.3149-.2669 0-.476.105-.6274.3149-.1497.2084-.2262.5038-.2295.8863v.205c0 .3907.0757.6926.2271.9058.153.2132.3645.3198.6347.3198.2735 0 .4834-.1041.6299-.3125.1481-.2083.2222-.5127.2222-.9131v-.1855z" fill="#AFB1B8"/></svg>