<svg aria-hidden="true" style="position: absolute; width: 0; height: 0; overflow: hidden;" version="1.1" xmlns="http://www.w3.org/2000/svg" xmlns:xlink="http://www.w3.org/1999/xlink">
<defs>
<symbol id="icon-Close24" viewBox="0 0 32 32">
<path d="M31.439 3.166l-3.166-3.166-12.553 12.553-12.553-12.553-3.166 3.166 12.553 12.553-12.553 12.553 3.166 3.166 12.553-12.553 12.553 12.553 3.166-3.166-12.553-12.553 12.553-12.553z"></path>
</symbol>
<symbol id="icon-Menu24" viewBox="0 0 46 32">
<path d="M1.778 6.519v-4.741h42.667v4.741h-42.667zM1.778 18.37h42.667v-4.741h-42.667v4.741zM1.778 30.222h42.667v-4.741h-42.667v4.741z"></path>
<path d="M1.778 1.778v-0.889h-0.889v0.889h0.889zM1.778 6.519h-0.889v0.889h0.889v-0.889zM44.444 1.778h0.889v-0.889h-0.889v0.889zM44.444 6.519v0.889h0.889v-0.889h-0.889zM44.444 18.37v0.889h0.889v-0.889h-0.889zM1.778 18.37h-0.889v0.889h0.889v-0.889zM44.444 13.63h0.889v-0.889h-0.889v0.889zM1.778 13.63v-0.889h-0.889v0.889h0.889zM44.444 30.222v0.889h0.889v-0.889h-0.889zM1.778 30.222h-0.889v0.889h0.889v-0.889zM44.444 25.481h0.889v-0.889h-0.889v0.889zM1.778 25.481v-0.889h-0.889v0.889h0.889zM0.889 1.778v4.741h1.778v-4.741h-1.778zM44.444 0.889h-42.667v1.778h42.667v-1.778zM45.333 6.519v-4.741h-1.778v4.741h1.778zM1.778 7.407h42.667v-1.778h-42.667v1.778zM44.444 17.481h-42.667v1.778h42.667v-1.778zM43.556 13.63v4.741h1.778v-4.741h-1.778zM1.778 14.519h42.667v-1.778h-42.667v1.778zM2.667 18.37v-4.741h-1.778v4.741h1.778zM44.444 29.333h-42.667v1.778h42.667v-1.778zM43.556 25.481v4.741h1.778v-4.741h-1.778zM1.778 26.37h42.667v-1.778h-42.667v1.778zM2.667 30.222v-4.741h-1.778v4.741h1.778z"></path>
</symbol>
<symbol id="icon-icon-send-2-11" viewBox="0 0 32 32">
<path fill="#fff" style="fill: var(--color1, #fff)" d="M32 0l-32 18 10.227 3.788 15.773-14.788-11.998 16.186 0.010 0.004-0.012-0.004v8.814l5.735-6.691 7.265 2.691 5-28z"></path>
</symbol>
<symbol id="icon-close-black" viewBox="0 0 32 32">
<path d="M26.667 7.303l-1.97-1.97-7.808 7.808-7.808-7.808-1.97 1.97 7.808 7.808-7.808 7.808 1.97 1.97 7.808-7.808 7.808 7.808 1.97-1.97-7.808-7.808 7.808-7.808z"></path>
</symbol>
</defs>
</svg>
