<svg width="26" height="18" fill="none" xmlns="http://www.w3.org/2000/svg"><path fill-rule="evenodd" clip-rule="evenodd" d="M1 3.66667V1h24v2.66667H1zm0 6.66663h24V7.66667H1v2.66663zM1 17h24v-2.6667H1V17z" fill="#000"/><path d="M1 1V.5H.5V1H1zm0 2.66667H.5v.5H1v-.5zM25 1h.5V.5H25V1zm0 2.66667v.5h.5v-.5H25zm0 6.66663v.5h.5v-.5H25zm-24 0H.5v.5H1v-.5zm24-2.66663h.5v-.5H25v.5zm-24 0v-.5H.5v.5H1zM25 17v.5h.5V17H25zM1 17H.5v.5H1V17zm24-2.6667h.5v-.5H25v.5zm-24 0v-.5H.5v.5H1zM.5 1v2.66667h1V1h-1zM25 .5H1v1h24v-1zm.5 3.16667V1h-1v2.66667h1zm-24.5.5h24v-1H1v1zm24 5.66666H1v.99997h24v-.99997zm-.5-2.16666v2.66663h1V7.66667h-1zm-23.5.5h24v-1H1v1zm.5 2.16663V7.66667h-1v2.66663h1zM25 16.5H1v1h24v-1zm-.5-2.1667V17h1v-2.6667h-1zm-23.5.5h24v-1H1v1zM1.5 17v-2.6667h-1V17h1z" fill="#000"/></svg>