<svg width="26" height="18" viewBox="0 0 26 18" fill="none" xmlns="http://www.w3.org/2000/svg">
<path fill-rule="evenodd" clip-rule="evenodd" d="M1 3.66667V1H25V3.66667H1ZM1 10.3333H25V7.66667H1V10.3333ZM1 17H25V14.3333H1V17Z" fill="black"/>
<path d="M1 1V0.5H0.5V1H1ZM1 3.66667H0.5V4.16667H1V3.66667ZM25 1H25.5V0.5H25V1ZM25 3.66667V4.16667H25.5V3.66667H25ZM25 10.3333V10.8333H25.5V10.3333H25ZM1 10.3333H0.5V10.8333H1V10.3333ZM25 7.66667H25.5V7.16667H25V7.66667ZM1 7.66667V7.16667H0.5V7.66667H1ZM25 17V17.5H25.5V17H25ZM1 17H0.5V17.5H1V17ZM25 14.3333H25.5V13.8333H25V14.3333ZM1 14.3333V13.8333H0.5V14.3333H1ZM0.5 1V3.66667H1.5V1H0.5ZM25 0.5H1V1.5H25V0.5ZM25.5 3.66667V1H24.5V3.66667H25.5ZM1 4.16667H25V3.16667H1V4.16667ZM25 9.83333H1V10.8333H25V9.83333ZM24.5 7.66667V10.3333H25.5V7.66667H24.5ZM1 8.16667H25V7.16667H1V8.16667ZM1.5 10.3333V7.66667H0.5V10.3333H1.5ZM25 16.5H1V17.5H25V16.5ZM24.5 14.3333V17H25.5V14.3333H24.5ZM1 14.8333H25V13.8333H1V14.8333ZM1.5 17V14.3333H0.5V17H1.5Z" fill="black"/>
</svg>
